<svg width="534" height="239" fill="none" xmlns="http://www.w3.org/2000/svg"><path d="M109.025 238.762V128.197c.577 0 1.153-.064 1.665-.064h49.551c1.088 0 1.857.319 2.625 1.082 4.609 4.647 9.219 9.294 13.892 13.877 1.024.954 1.408 2.037 1.408 3.437-.064 24.761-.064 49.522 0 74.283 0 1.336-.448 2.355-1.408 3.246a2976.784 2976.784 0 00-14.212 14.067c-.448.446-1.153.828-1.729.828-17.029.063-34.058.063-51.087 0-.064-.128-.32-.128-.705-.191zm47.759-55.251V151.43c0-2.1-.064-2.164-2.241-2.164-7.362 0-14.724.064-22.15 0-1.665 0-2.177.573-2.177 2.164.064 21.388.064 42.775 0 64.162 0 1.655.64 2.101 2.241 2.101 7.298-.064 14.66 0 21.958 0 2.305 0 2.305 0 2.305-2.419.064-10.566.064-21.133.064-31.763zM324.707 55.25V18.079c0-1.21.384-2.101 1.217-2.928 4.865-4.774 9.602-9.548 14.468-14.322.448-.446 1.152-.764 1.728-.764a3054.07 3054.07 0 0134.379-.001c.576 0 1.344.318 1.728.7a1551.06 1551.06 0 0114.533 14.45c.64.636 1.088 1.718 1.152 2.609.128 6.047 0 12.03.064 18.077 0 1.528-.576 1.91-1.984 1.91a806.423 806.423 0 00-17.542 0c-1.536 0-1.92-.51-1.92-1.973.064-4.138 0-8.339.064-12.476 0-1.592-.384-2.228-2.113-2.164-7.426.063-14.852.063-22.279 0-1.536 0-2.112.445-2.112 2.037.064 21.45.064 42.901 0 64.352 0 1.592.576 2.037 2.112 2.037a1321.18 1321.18 0 0122.471 0c1.537 0 1.921-.573 1.921-2.037-.064-6.556-.064-13.176 0-19.732 0-1.4-.448-1.91-1.857-1.846-2.817.064-5.698 0-8.514.064-1.345 0-1.985-.382-1.921-1.846a803.77 803.77 0 000-17.568c0-1.4.512-1.91 1.921-1.846 9.987 0 19.974.063 29.961 0 1.408 0 1.856.573 1.856 1.91 0 15.403 0 30.87-.064 46.275 0 .891-.512 1.973-1.152 2.61-4.802 4.901-9.667 9.675-14.532 14.449-.449.382-1.153.7-1.793.7-11.396.064-22.791.064-34.251 0-.64 0-1.472-.318-1.92-.764a757.723 757.723 0 01-14.404-14.322c-.641-.7-1.153-1.846-1.153-2.8-.064-12.54-.064-25.08-.064-37.62zM74.902.064h21.063c.064.827.128 1.591.128 2.355v40.038c0 2.355.064 2.355 2.368 2.355h19.078c2.305 0 2.305 0 2.305-2.355V.191h21.383v110.565h-21.383V68.682c0-2.547 0-2.547-2.625-2.547H98.334c-2.113 0-2.177.064-2.177 2.165v42.456h-21.19c-.065-36.855-.065-73.71-.065-110.692zm168.884.063h21.255V86.76c0 2.928 0 2.928 2.881 2.928h20.934c2.561 0 2.561 0 2.561-2.483V.127h19.206c2.24 0 2.24 0 2.24 2.228v76.32c0 4.71.064 9.484-.064 14.195 0 1.082-.576 2.355-1.28 3.055-4.674 4.837-9.475 9.548-14.276 14.194-.449.446-1.281.764-1.921.764-11.396.064-22.791.064-34.186 0-.641 0-1.409-.318-1.921-.764a758.305 758.305 0 01-14.404-14.322c-.641-.636-1.089-1.718-1.089-2.61-.064-30.425-.064-60.788-.064-91.214 0-.7.064-1.209.128-1.846zM190.01 128.133h21.254c.064.891.128 1.719.128 2.483v84.276c0 2.801 0 2.801 2.881 2.801h21.255c2.24 0 2.24 0 2.24-2.292v-87.204c.769-.064 1.281-.127 1.857-.127 5.89 0 11.779.063 17.733-.064 1.665 0 1.985.573 1.985 2.037-.064 19.414 0 38.828 0 58.242v32.272c0 1.4-.384 2.419-1.408 3.437-4.738 4.647-9.475 9.357-14.213 14.067-.448.446-1.28.764-1.92.764-11.396.064-22.791.064-34.187 0-.64 0-1.472-.318-1.92-.764-4.802-4.71-9.539-9.484-14.341-14.194-.96-.891-1.28-1.846-1.28-3.119v-90.514c-.064-.637-.064-1.273-.064-2.101zm162.288 0h21.254v44.621l.577.191c.384-.51.768-1.019 1.024-1.528a8902.55 8902.55 0 0024.071-41.884c.576-1.018 1.217-1.464 2.497-1.464 6.722.064 13.508.064 20.23.064.512 0 1.025.064 1.793.064-.384.763-.64 1.336-.961 1.909-9.859 17.059-19.718 34.118-29.641 51.177-.96 1.719-.96 2.928 0 4.583 9.923 16.995 19.718 33.991 29.577 50.986.321.573.577 1.146.961 1.909-.64.064-1.089.128-1.537.128-6.914 0-13.828 0-20.742.063-1.088 0-1.601-.318-2.113-1.209-8.002-13.94-16.069-27.88-24.135-41.82-.32-.573-.768-1.146-1.152-1.718-.192.063-.32.063-.513.127v44.493H352.17c.128-36.918.128-73.71.128-110.692zm-81.238 55.314c0-12.285 0-24.57-.064-36.791 0-1.528.384-2.61 1.473-3.692 4.737-4.583 9.346-9.357 14.084-13.94.512-.509 1.344-.827 2.048-.827 11.332-.064 22.663-.064 34.059 0 .704 0 1.536.382 2.048.827 4.738 4.647 9.475 9.421 14.213 14.067.96.955 1.408 1.91 1.408 3.247a803.76 803.76 0 000 17.568c0 1.528-.384 2.1-1.984 2.037a801.383 801.383 0 00-17.542 0c-1.536 0-1.92-.509-1.92-1.973.064-4.138.064-8.339 0-12.476 0-2.101-.064-2.165-2.241-2.165h-21.959c-2.112 0-2.24.128-2.24 2.165v63.971c0 2.036.128 2.227 2.24 2.227 7.363 0 14.725-.063 22.151.064 1.665 0 2.177-.573 2.113-2.164-.064-4.201 0-8.466-.064-12.667 0-1.4.448-1.846 1.856-1.846 5.89.064 11.78.064 17.67 0 1.408 0 1.856.509 1.856 1.846-.064 6.047 0 12.158-.064 18.205 0 .827-.448 1.909-1.088 2.482-4.802 4.901-9.731 9.739-14.661 14.577-.384.382-1.088.636-1.6.636-11.46.064-22.919.064-34.379 0-.64 0-1.408-.318-1.856-.764-4.802-4.71-9.539-9.484-14.341-14.194-.896-.828-1.216-1.719-1.216-2.992.064-12.476 0-24.952 0-37.428zm-61.396-72.755h-56.465V.127h56.465c.064.637.129 1.21.129 1.846 0 5.73-.065 11.458.064 17.25 0 1.655-.577 2.1-2.177 2.1-10.243-.063-20.422 0-30.666 0-2.496 0-2.56 0-2.56 2.61v18.778c0 2.164.064 2.228 2.304 2.228h23.175c2.817 0 2.817 0 2.817 2.737v15.85c0 2.61 0 2.61-2.56 2.61h-23.304c-2.368 0-2.432 0-2.432 2.29v18.778c0 2.42.064 2.483 2.432 2.483h30.474c2.368 0 2.368 0 2.368 2.291v16.868c.064.573 0 1.146-.064 1.846zM454.09 0h4.545c5.058 0 10.115.064 15.173 0 1.088 0 1.664.318 2.048 1.337 5.442 14.003 10.948 27.943 16.389 41.947.193.51.513 1.018 1.025 1.846a2050.5 2050.5 0 005.185-12.349c4.354-10.502 8.707-21.005 13.124-31.444.256-.573.961-1.273 1.473-1.273 6.53-.064 13.06 0 19.59 0 .128 0 .192.063.512.19-1.408 3.438-2.881 6.939-4.289 10.376-6.722 16.104-13.38 32.145-20.103 48.249-1.472 3.5-2.944 6.938-4.289 10.439-.512 1.273-.832 2.673-.832 4.074-.064 11.712-.064 23.424-.064 35.136 0 .7-.064 1.4-.128 2.228h-21.191v-1.973c0-10.503-.128-21.07.064-31.572.064-4.201-.768-8.02-2.304-11.903-7.555-18.969-14.981-37.937-22.407-56.97-1.216-2.673-2.305-5.346-3.521-8.338zM20.422 110.629V23.806c0-2.61 0-2.61-2.625-2.61H0V.065h62.419c.064.51.128 1.018.128 1.591 0 5.92 0 11.84.064 17.76 0 1.4-.448 1.845-1.856 1.845-5.442-.063-10.884 0-16.325 0-2.433 0-2.497 0-2.497 2.42v84.084c0 .573-.064 1.146 0 1.719.064 1.018-.384 1.337-1.409 1.337-6.338-.064-12.74 0-19.078 0-.32 0-.576-.128-1.024-.191zm442.631.063h-56.53V.127h21.127c.064.828.128 1.72.128 2.547v84.085c0 2.8 0 2.8 2.817 2.8h30.153c2.241 0 2.305 0 2.305 2.228v18.905zM435 148h2.588v-19.092L447.799 148h4.779v-20h-2.56v19.092L439.778 128H435v20zm21.666 0h2.588v-8.426h9.471v-2.184h-9.471v-7.177h10.723V128h-13.311v20zm15.951-20v2.213h6.912V148h2.588v-17.787H489V128h-16.383z" fill="#02060E"/></svg>