<svg xmlns="http://www.w3.org/2000/svg" width="173" height="24" fill="none">
    <path d="M111 22.85V.95h10c.2 0 .4.1.5.2l2.7 2.7c.2.2.3.4.3.7v14.7c0 .3-.1.5-.3.6l-2.8 2.8c-.1.1-.2.2-.3.2h-10c0 .1 0 .1-.1 0zm9.4-10.9v-6.3c0-.4 0-.4-.4-.4h-4.3c-.3 0-.4.1-.4.4v12.7c0 .3.1.4.4.4h4.3c.5 0 .5 0 .5-.5-.1-2.1-.1-4.2-.1-6.3zm-55.8-.1v-7.3c0-.2.1-.4.2-.6 1-.9 1.9-1.9 2.8-2.8.1-.1.2-.1.3-.1h6.8c.1 0 .3.1.3.1 1 .9 1.9 1.9 2.9 2.9.1.1.2.3.2.5v3.6c0 .3-.1.4-.4.4h-3.4c-.3 0-.4-.1-.4-.4v-2.5c0-.3-.1-.4-.4-.4h-4.4c-.3 0-.4.1-.4.4v12.7c0 .3.1.4.4.4h4.4c.3 0 .4-.1.4-.4v-3.9c0-.3-.1-.4-.4-.4h-1.7c-.3 0-.4-.1-.4-.4v-3.5c0-.3.1-.4.4-.4h5.9c.3 0 .4.1.4.4v9.1c0 .2-.1.4-.2.5-.9 1-1.9 1.9-2.9 2.9-.1.1-.2.1-.3.1H68c-.1 0-.3-.1-.4-.1-1-.9-1.9-1.9-2.8-2.8-.1-.1-.2-.4-.2-.5v-7.5zM14.7.85h4.1v8.4c0 .5 0 .5.5.5H23c.5 0 .5 0 .5-.5V.85h4.2v21.8h-4.2v-8.3c0-.5 0-.5-.5-.5h-3.7c-.4 0-.4 0-.4.4v8.3h-4.2V.85zm34 .1h4.2v17.1c0 .6 0 .6.6.6h4.1c.5 0 .5 0 .5-.5V.95h3.8c.4 0 .4 0 .4.4v17.9c0 .2-.1.5-.3.6-.9 1-1.9 1.9-2.8 2.8-.1.1-.2.1-.4.1h-6.7c-.1 0-.3-.1-.4-.2-1-.9-1.9-1.9-2.8-2.8-.1-.1-.2-.3-.2-.5V.95zm78.2.1h4.2v17.2c0 .5 0 .5.6.5h4.2c.4 0 .4 0 .4-.4V1.15h3.9c.3 0 .4.1.4.4v17.9c0 .3-.1.5-.3.7l-2.8 2.8c-.1.1-.2.2-.4.2h-6.7c-.1 0-.3-.1-.4-.2l-2.8-2.8c-.2-.2-.3-.4-.3-.6V1.05zm31.901 0h4.2v8.8h.1c.1-.1.1-.2.2-.3 1.6-2.8 3.2-5.5 4.7-8.3.1-.2.2-.3.5-.3h4.3c-.1.1-.1.3-.2.4-1.9 3.4-3.9 6.7-5.8 10.1-.2.3-.2.6 0 .9 1.9 3.4 3.9 6.7 5.8 10.1.1.1.1.2.2.4h-4.4c-.2 0-.3-.1-.4-.2-1.6-2.8-3.2-5.5-4.7-8.3-.1-.1-.1-.2-.2-.3h-.1v8.8h-4.2V1.05zM142.9 11.95v-7.3c0-.3.1-.5.3-.7l2.8-2.8c.1-.1.3-.2.4-.2h6.7c.1 0 .3.1.4.2l2.8 2.8c.2.2.3.4.3.6v3.5c0 .3-.1.4-.4.4h-3.4c-.3 0-.4-.1-.4-.4v-2.5c0-.4 0-.4-.4-.4h-4.3c-.4 0-.4 0-.4.4v12.6c0 .4 0 .4.4.4h4.3c.3 0 .4-.1.4-.4v-2.5c0-.3.1-.4.4-.4h3.5c.3 0 .4.1.4.4v3.6c0 .2-.1.4-.2.5-.9 1-1.9 1.9-2.9 2.9-.1.1-.2.1-.3.1h-6.8c-.1 0-.3-.1-.4-.2l-2.8-2.8c-.2-.2-.2-.3-.2-.6-.2-2.2-.2-4.7-.2-7.2zM41.2 22.75H30.1V.85h11.1v3.8c0 .3-.1.4-.4.4h-6c-.5 0-.5 0-.5.5v3.7c0 .4 0 .4.5.4h4.5c.6 0 .6 0 .6.5v3.1c0 .5 0 .5-.5.5h-4.6c-.5 0-.5 0-.5.5v3.7c0 .5 0 .5.5.5h6c.5 0 .5 0 .5.5v3.3c-.1.3-.1.4-.1.5zM90 .85h3.9c.2 0 .3.1.4.3 1.1 2.8 2.1 5.5 3.2 8.3 0 .1.1.2.2.4.4-.9.7-1.7 1-2.4.9-2.1 1.7-4.1 2.6-6.2 0-.1.2-.2.3-.2h3.9c-.3.7-.6 1.4-.8 2.1-1.3 3.2-2.6 6.4-4 9.5-.3.7-.6 1.4-.8 2.1-.1.3-.2.5-.2.8v7.3h-4.2v-6.6c0-.8-.2-1.6-.5-2.4-1.5-3.7-2.9-7.5-4.4-11.3-.1-.5-.3-1.1-.6-1.7zM4 22.75V5.55c0-.5 0-.5-.5-.5H0V.85h12.3v3.8c0 .3-.1.4-.4.4H8.7c-.5 0-.5 0-.5.5v16.9c0 .2-.1.3-.3.3H4zm87.8 0H80.7V.85h4.2v17.1c0 .6 0 .6.6.6h5.9c.4 0 .4 0 .4.4v3.8z" fill="#fff" />
</svg>