<svg xmlns="http://www.w3.org/2000/svg" width="32" height="27" fill="none">
    <path fill-rule="evenodd" clip-rule="evenodd" d="M2.163 11.307c8.476-3.681 14.12-6.127 16.953-7.314C27.181.626 28.876.045 29.966.021c.242 0 .775.048 1.139.34.29.241.363.556.411.798.049.242.097.751.049 1.139-.436 4.601-2.325 15.766-3.294 20.9-.412 2.18-1.211 2.907-1.986 2.98-1.695.145-2.979-1.114-4.602-2.18-2.567-1.671-3.996-2.713-6.49-4.36-2.883-1.889-1.018-2.93.63-4.625.435-.436 7.87-7.218 8.016-7.823.024-.073.024-.363-.145-.509-.17-.145-.412-.097-.606-.048-.266.048-4.335 2.76-12.255 8.113-1.162.8-2.204 1.187-3.148 1.163-1.042-.024-3.028-.581-4.53-1.066-1.816-.581-3.269-.896-3.148-1.913.073-.533.8-1.066 2.156-1.623z" fill="#fff" />
</svg>